<?xml version="1.0" encoding="UTF-8" standalone="no"?>
<svg
   xmlns:dc="http://purl.org/dc/elements/1.1/"
   xmlns:cc="http://creativecommons.org/ns#"
   xmlns:rdf="http://www.w3.org/1999/02/22-rdf-syntax-ns#"
   xmlns:svg="http://www.w3.org/2000/svg"
   xmlns="http://www.w3.org/2000/svg"
   xmlns:sodipodi="http://sodipodi.sourceforge.net/DTD/sodipodi-0.dtd"
   xmlns:inkscape="http://www.inkscape.org/namespaces/inkscape"
   version="1.1"
   id="svg3296"
   sodipodi:docname="dorihanson.svg"
   inkscape:version="1.0.2 (e86c8708, 2021-01-15)">
  <metadata
     id="metadata3302">
    <rdf:RDF>
      <cc:Work
         rdf:about="">
        <dc:format>image/svg+xml</dc:format>
        <dc:type
           rdf:resource="http://purl.org/dc/dcmitype/StillImage" />
        <dc:title></dc:title>
      </cc:Work>
    </rdf:RDF>
  </metadata>
  <defs
     id="defs3300" />
  <sodipodi:namedview
     pagecolor="#ffffff"
     bordercolor="#666666"
     borderopacity="1"
     objecttolerance="10"
     gridtolerance="10"
     guidetolerance="10"
     inkscape:pageopacity="0"
     inkscape:pageshadow="2"
     inkscape:window-width="1437"
     inkscape:window-height="758"
     id="namedview3298"
     showgrid="false"
     inkscape:zoom="3.6533333"
     inkscape:cx="116.15933"
     inkscape:cy="68.415546"
     inkscape:window-x="342"
     inkscape:window-y="1161"
     inkscape:window-maximized="0"
     inkscape:current-layer="text3895"
     inkscape:document-rotation="0" />
  <g
     aria-label="Aloha"
     id="text3895"
     style="font-style:normal;font-weight:normal;font-size:40px;line-height:1.25;font-family:sans-serif;fill:#000000;fill-opacity:1;stroke:none">
    <g
       aria-label="Dori Hanson"
       id="text4575"
       style="font-style:normal;font-variant:normal;font-weight:normal;font-stretch:normal;font-size:16px;line-height:1.25;font-family:sans-serif;-inkscape-font-specification:'sans-serif, Normal';font-variant-ligatures:normal;font-variant-caps:normal;font-variant-numeric:normal;font-variant-east-asian:normal;fill:#000000;fill-opacity:1;stroke:none">
      <path
         d="m 22.056854,13.355896 q 0,1.625 -0.742187,2.914062 -0.742188,1.28125 -1.875,1.96875 -0.851563,0.515625 -1.867188,0.71875 -1.015625,0.203125 -2.40625,0.203125 H 11.064667 V 7.527771 h 4.21875 q 1.421875,0 2.453125,0.2421875 1.03125,0.234375 1.734375,0.671875 1.203125,0.734375 1.890625,1.9843745 0.695312,1.242188 0.695312,2.929688 z m -3.101562,-0.02344 q 0,-1.148437 -0.421875,-1.960937 -0.414063,-0.820313 -1.320313,-1.28125 Q 16.752167,9.8637085 16.267792,9.7855835 15.791229,9.699646 14.822479,9.699646 h -0.757812 v 7.28125 h 0.757812 q 1.070313,0 1.570313,-0.09375 0.5,-0.101563 0.976562,-0.359375 0.820313,-0.46875 1.203125,-1.25 0.382813,-0.789063 0.382813,-1.945313 z"
         style="font-style:normal;font-variant:normal;font-weight:bold;font-stretch:normal;font-size:16px;font-family:sans-serif;-inkscape-font-specification:'sans-serif, Bold';font-variant-ligatures:normal;font-variant-caps:normal;font-variant-numeric:normal;font-variant-east-asian:normal"
         id="path4577" />
      <path
         d="m 33.158417,14.777771 q 0,2.164062 -1.265625,3.414062 -1.257813,1.242188 -3.539063,1.242188 -2.28125,0 -3.546875,-1.242188 -1.257812,-1.25 -1.257812,-3.414062 0,-2.179688 1.265625,-3.421875 1.273437,-1.242188 3.539062,-1.242188 2.296875,0 3.546875,1.25 1.257813,1.25 1.257813,3.414063 z m -3.460938,2.132812 q 0.273438,-0.335937 0.40625,-0.804687 0.140625,-0.476563 0.140625,-1.3125 0,-0.773438 -0.140625,-1.296875 -0.140625,-0.523438 -0.390625,-0.835938 -0.25,-0.320312 -0.601562,-0.453125 -0.351563,-0.132812 -0.757813,-0.132812 -0.40625,0 -0.726562,0.109375 -0.3125,0.109375 -0.601563,0.4375 -0.257812,0.304687 -0.414062,0.835937 -0.148438,0.53125 -0.148438,1.335938 0,0.71875 0.132813,1.25 0.132812,0.523437 0.390625,0.84375 0.25,0.304687 0.59375,0.445312 0.351562,0.140625 0.796875,0.140625 0.382812,0 0.726562,-0.125 0.351563,-0.132812 0.59375,-0.4375 z"
         style="font-style:normal;font-variant:normal;font-weight:bold;font-stretch:normal;font-size:16px;font-family:sans-serif;-inkscape-font-specification:'sans-serif, Bold';font-variant-ligatures:normal;font-variant-caps:normal;font-variant-numeric:normal;font-variant-east-asian:normal"
         id="path4579" />
      <path
         d="m 41.549042,13.066833 h -0.25 q -0.179688,-0.0625 -0.578125,-0.09375 -0.398438,-0.03125 -0.664063,-0.03125 -0.601562,0 -1.0625,0.07813 -0.460937,0.07813 -0.992187,0.265625 v 5.875 h -2.8125 v -8.773437 h 2.8125 v 1.289062 q 0.929687,-0.796875 1.617187,-1.054687 0.6875,-0.265625 1.265625,-0.265625 0.148438,0 0.335938,0.0078 0.1875,0.0078 0.328125,0.02344 z"
         style="font-style:normal;font-variant:normal;font-weight:bold;font-stretch:normal;font-size:16px;font-family:sans-serif;-inkscape-font-specification:'sans-serif, Bold';font-variant-ligatures:normal;font-variant-caps:normal;font-variant-numeric:normal;font-variant-east-asian:normal"
         id="path4581" />
      <path
         d="m 45.970917,19.160583 h -2.8125 v -8.773437 h 2.8125 z m 0.07813,-10.023437 h -2.96875 V 7.0043335 h 2.96875 z"
         style="font-style:normal;font-variant:normal;font-weight:bold;font-stretch:normal;font-size:16px;font-family:sans-serif;-inkscape-font-specification:'sans-serif, Bold';font-variant-ligatures:normal;font-variant-caps:normal;font-variant-numeric:normal;font-variant-east-asian:normal"
         id="path4583" />
      <path
         d="m 64.681854,19.160583 h -3 v -5.125 h -4.429687 v 5.125 h -3 V 7.527771 h 3 v 4.257812 h 4.429687 V 7.527771 h 3 z"
         style="font-style:normal;font-variant:normal;font-weight:bold;font-stretch:normal;font-size:16px;font-family:sans-serif;-inkscape-font-specification:'sans-serif, Bold';font-variant-ligatures:normal;font-variant-caps:normal;font-variant-numeric:normal;font-variant-east-asian:normal"
         id="path4585" />
      <path
         d="m 72.814667,16.871521 v -1.828125 q -0.570313,0.04687 -1.234375,0.132812 -0.664063,0.07813 -1.007813,0.1875 -0.421875,0.132813 -0.648437,0.390625 -0.21875,0.25 -0.21875,0.664063 0,0.273437 0.04687,0.445312 0.04687,0.171875 0.234375,0.328125 0.179687,0.15625 0.429687,0.234375 0.25,0.07031 0.78125,0.07031 0.421875,0 0.851563,-0.171875 0.4375,-0.171875 0.765625,-0.453125 z m 0,1.359375 q -0.226563,0.171875 -0.5625,0.414062 -0.335938,0.242188 -0.632813,0.382813 -0.414062,0.1875 -0.859375,0.273437 -0.445312,0.09375 -0.976562,0.09375 -1.25,0 -2.09375,-0.773437 -0.84375,-0.773438 -0.84375,-1.976563 0,-0.960937 0.429687,-1.570312 0.429688,-0.609375 1.21875,-0.960938 0.78125,-0.351562 1.9375,-0.5 1.15625,-0.148437 2.398438,-0.21875 v -0.04687 q 0,-0.726562 -0.59375,-1 -0.59375,-0.28125 -1.75,-0.28125 -0.695313,0 -1.484375,0.25 -0.789063,0.242188 -1.132813,0.375 h -0.257812 v -2.117187 q 0.445312,-0.117188 1.445312,-0.273438 1.007813,-0.164062 2.015625,-0.164062 2.398438,0 3.460938,0.742187 1.070312,0.734375 1.070312,2.3125 v 5.96875 h -2.789062 z"
         style="font-style:normal;font-variant:normal;font-weight:bold;font-stretch:normal;font-size:16px;font-family:sans-serif;-inkscape-font-specification:'sans-serif, Bold';font-variant-ligatures:normal;font-variant-caps:normal;font-variant-numeric:normal;font-variant-east-asian:normal"
         id="path4587" />
      <path
         d="m 87.002167,19.160583 h -2.828125 v -4.351562 q 0,-0.53125 -0.05469,-1.054688 -0.05469,-0.53125 -0.1875,-0.78125 -0.15625,-0.289062 -0.460937,-0.421875 -0.296875,-0.132812 -0.835938,-0.132812 -0.382812,0 -0.78125,0.125 -0.390625,0.125 -0.851562,0.398437 v 6.21875 h -2.8125 v -8.773437 h 2.8125 v 0.96875 q 0.75,-0.585938 1.4375,-0.898438 0.695312,-0.3125 1.539062,-0.3125 1.421875,0 2.21875,0.828125 0.804688,0.828125 0.804688,2.476563 z"
         style="font-style:normal;font-variant:normal;font-weight:bold;font-stretch:normal;font-size:16px;font-family:sans-serif;-inkscape-font-specification:'sans-serif, Bold';font-variant-ligatures:normal;font-variant-caps:normal;font-variant-numeric:normal;font-variant-east-asian:normal"
         id="path4589" />
      <path
         d="m 97.220917,16.379333 q 0,1.359375 -1.21875,2.195313 -1.21875,0.828125 -3.335938,0.828125 -1.171875,0 -2.125,-0.21875 -0.953125,-0.21875 -1.53125,-0.484375 v -2.3125 h 0.257813 q 0.210937,0.148437 0.484375,0.328125 0.28125,0.171875 0.789062,0.375 0.4375,0.179687 0.992188,0.3125 0.554687,0.125 1.1875,0.125 0.828125,0 1.226562,-0.179688 0.398438,-0.1875 0.398438,-0.546875 0,-0.320312 -0.234375,-0.460937 -0.234375,-0.148438 -0.890625,-0.28125 -0.3125,-0.07031 -0.851563,-0.148438 -0.53125,-0.08594 -0.96875,-0.203125 -1.195312,-0.3125 -1.773437,-0.96875 -0.578125,-0.664062 -0.578125,-1.648437 0,-1.265625 1.195312,-2.101563 1.203125,-0.84375 3.28125,-0.84375 0.984375,0 1.882813,0.203125 0.90625,0.195313 1.414062,0.421875 v 2.21875 h -0.242187 q -0.625,-0.429687 -1.429688,-0.695312 -0.796875,-0.273438 -1.617187,-0.273438 -0.679688,0 -1.148438,0.1875 -0.460937,0.1875 -0.460937,0.53125 0,0.3125 0.210937,0.476563 0.210938,0.164062 0.992188,0.328125 0.429687,0.08594 0.921875,0.171875 0.5,0.07813 1,0.203125 1.109375,0.289062 1.640625,0.914062 0.53125,0.617188 0.53125,1.546875 z"
         style="font-style:normal;font-variant:normal;font-weight:bold;font-stretch:normal;font-size:16px;font-family:sans-serif;-inkscape-font-specification:'sans-serif, Bold';font-variant-ligatures:normal;font-variant-caps:normal;font-variant-numeric:normal;font-variant-east-asian:normal"
         id="path4591" />
      <path
         d="m 108.06467,14.777771 q 0,2.164062 -1.26563,3.414062 -1.25781,1.242188 -3.53906,1.242188 -2.28125,0 -3.546876,-1.242188 -1.257812,-1.25 -1.257812,-3.414062 0,-2.179688 1.265625,-3.421875 1.273433,-1.242188 3.539063,-1.242188 2.29687,0 3.54687,1.25 1.25782,1.25 1.25782,3.414063 z m -3.46094,2.132812 q 0.27344,-0.335937 0.40625,-0.804687 0.14062,-0.476563 0.14062,-1.3125 0,-0.773438 -0.14062,-1.296875 -0.14063,-0.523438 -0.39063,-0.835938 -0.25,-0.320312 -0.60156,-0.453125 -0.35156,-0.132812 -0.75781,-0.132812 -0.40625,0 -0.72656,0.109375 -0.3125,0.109375 -0.60157,0.4375 -0.25781,0.304687 -0.41406,0.835937 -0.14844,0.53125 -0.14844,1.335938 0,0.71875 0.13282,1.25 0.13281,0.523437 0.39062,0.84375 0.25,0.304687 0.59375,0.445312 0.35156,0.140625 0.79688,0.140625 0.38281,0 0.72656,-0.125 0.35156,-0.132812 0.59375,-0.4375 z"
         style="font-style:normal;font-variant:normal;font-weight:bold;font-stretch:normal;font-size:16px;font-family:sans-serif;-inkscape-font-specification:'sans-serif, Bold';font-variant-ligatures:normal;font-variant-caps:normal;font-variant-numeric:normal;font-variant-east-asian:normal"
         id="path4593" />
      <path
         d="m 118.90842,19.160583 h -2.82813 v -4.351562 q 0,-0.53125 -0.0547,-1.054688 -0.0547,-0.53125 -0.1875,-0.78125 -0.15625,-0.289062 -0.46093,-0.421875 -0.29688,-0.132812 -0.83594,-0.132812 -0.38281,0 -0.78125,0.125 -0.39063,0.125 -0.85156,0.398437 v 6.21875 h -2.8125 v -8.773437 h 2.8125 v 0.96875 q 0.75,-0.585938 1.4375,-0.898438 0.69531,-0.3125 1.53906,-0.3125 1.42187,0 2.21875,0.828125 0.80469,0.828125 0.80469,2.476563 z"
         style="font-style:normal;font-variant:normal;font-weight:bold;font-stretch:normal;font-size:16px;font-family:sans-serif;-inkscape-font-specification:'sans-serif, Bold';font-variant-ligatures:normal;font-variant-caps:normal;font-variant-numeric:normal;font-variant-east-asian:normal"
         id="path4595" />
    </g>
  </g>
</svg>
