<?xml version="1.0" encoding="UTF-8" standalone="no"?>
<svg
   xmlns:svg="http://www.w3.org/2000/svg"
   xmlns="http://www.w3.org/2000/svg"
   width="160px"
   height="160px"
   viewBox="0 0 80 80">
  <g id="layer1">
    <path
       d="m 37.575099,35.160722 c 0.19123,-0.18934 -0.36904,-0.59004 -1.16157,-1.2938 -3.699617,-3.28516 -4.242291,-4.10019 -4.246237,-6.37733 -0.0019,-1.09977 0.578742,-1.13497 1.36443,-0.0827 0.627348,0.8402 1.901307,1.49705 2.359577,1.21661 0.47278,-0.28933 -0.14471,-1.10285 -1.745418,-2.29953 -1.76395,-1.31871 -2.249259,-2.15195 -2.241419,-3.84832 0.0054,-1.16043 0.809806,-3.51887 1.200257,-3.51887 0.08988,0 0.512325,0.76192 0.938758,1.69317 0.750912,1.63983 1.817202,2.80475 2.567282,2.80475 0.9021,0 -0.16795,-2.16991 -1.76112,-3.57124 -1.401474,-1.23274 -1.721743,-3.13775 -0.845258,-5.02772 0.547598,-1.18078 1.469138,-2.11718 1.852618,-1.88249 0.13815,0.0845 0.39252,0.70949 0.56527,1.38879 0.45699,1.79707 1.01861,2.74266 1.62896,2.74266 0.7264,0 0.66369,-0.4842 -0.29638,-2.28824 -0.67694,-1.272 -0.79384,-1.73704 -0.65523,-2.60656 0.16054,-1.00713 2.44912,-4.8840798 2.88739,-4.8913598 0.11318,-0.002 0.76417,0.85128 1.44665,1.8959 1.60441,2.4558098 1.80019,3.8470798 0.78322,5.5653998 -0.8266,1.39663 -0.92932,2.40736 -0.23121,2.27499 0.54292,-0.10295 1.28206,-1.44882 1.67997,-3.05899 0.15295,-0.61893 0.4371,-1.12448 0.63205,-1.12448 0.53342,0 1.69019,1.82354 2.03866,3.21374 0.26878,1.07231 0.24024,1.38137 -0.22344,2.41928 -0.29236,0.65445 -0.91674,1.47046 -1.3875,1.81335 -0.79393,0.57827 -1.87132,2.22594 -1.87132,2.86184 0,0.3995 0.86064,0.33705 1.50394,-0.10911 0.30472,-0.21134 0.92422,-1.15163 1.37668,-2.08954 0.45245,-0.93791 0.93155,-1.77193 1.06464,-1.85338 0.35756,-0.21882 1.14589,1.58968 1.31718,3.02168 0.19433,1.62478 -0.5488,2.95171 -2.36109,4.2159 -1.45809,1.01711 -2.02603,1.76629 -1.63358,2.1549 0.36689,0.36329 1.41232,-0.11829 2.32272,-1.06994 0.43165,-0.4512 0.89701,-0.82037 1.03415,-0.82037 0.13929,0 0.19849,0.69578 0.13416,1.57652 -0.13914,1.90461 -0.69952,2.75927 -3.15535,4.81237 -1.60019,1.33775 -2.30223,2.34235 -1.63692,2.34235 l -0.85588,3.67377 c -3.68534,-0.2589 -2.9642,1.618 -4.38964,-3.874 z"
       id="path98-8" />
    <path
       d="m 42.971069,43.587092 c -0.19406,0.18643 0.36009,0.59554 1.14192,1.31119 3.64961,3.34062 4.17992,4.16374 4.1495,6.44067 -0.0147,1.09968 -0.5958,1.12611 -1.36552,0.0621 -0.6146,-0.84956 -1.8785,-1.52557 -2.34095,-1.25208 -0.47709,0.28216 0.12805,1.10491 1.71052,2.32562 1.74384,1.34518 2.21652,2.18565 2.18308,3.8817 -0.0229,1.16022 -0.86282,3.50625 -1.25322,3.50036 -0.0899,-10e-4 -0.50077,-0.76957 -0.9131,-1.70714 -0.72608,-1.65098 -1.77467,-2.83186 -2.52466,-2.84319 -0.902,-0.0136 0.13518,2.1722 1.70702,3.59742 1.38271,1.25376 1.67419,3.16337 0.76928,5.0399 -0.56535,1.17238 -1.50092,2.09477 -1.88082,1.85433 -0.13685,-0.0866 -0.38176,-0.71535 -0.54423,-1.39718 -0.42983,-1.80376 -0.97711,-2.75771 -1.58739,-2.76693 -0.72632,-0.011 -0.67092,0.47414 0.26181,2.29245 0.65766,1.28208 0.76753,1.74883 0.61582,2.61616 -0.17573,1.00459 -2.52255,4.84657 -2.96088,4.84723 -0.1132,2.9e-4 -0.75124,-0.86271 -1.41787,-1.91752 -1.56717,-2.47975 -1.74193,-3.87381 -0.69914,-5.57659 0.84758,-1.38399 0.96554,-2.39306 0.26551,-2.27124 -0.5444,0.0947 -1.30377,1.42931 -1.72595,3.03329 -0.16227,0.61656 -0.45402,1.11775 -0.64894,1.11481 -0.53336,-0.008 -1.66248,-1.84884 -1.989926,-3.24414 -0.252571,-1.07625 -0.219363,-1.38483 0.259922,-2.41563 0.302205,-0.64997 0.938834,-1.45646 1.414714,-1.79221 0.80257,-0.56621 1.9047,-2.19744 1.91429,-2.83327 0.006,-0.39945 -0.85545,-0.35 -1.50541,0.0864 -0.30787,0.20672 -0.94149,1.13755 -1.40805,2.06853 -0.466562,0.93097 -0.958192,1.75766 -1.0925,1.8371 -0.360817,0.2134 -1.12177,-1.6068 -1.271424,-3.04122 -0.169791,-1.62752 0.593285,-2.94309 2.424444,-4.17978 1.47328,-0.99499 2.05246,-1.73551 1.66592,-2.13001 -0.36137,-0.36877 -1.41395,0.097 -2.338604,1.03478 -0.438413,0.44463 -0.909289,0.80674 -1.046409,0.80467 -0.139274,-0.002 -0.187975,-0.6987 -0.110358,-1.57838 0.167866,-1.90229 0.741083,-2.74839 3.227621,-4.76419 1.62019,-1.31346 2.33732,-2.30735 1.67208,-2.31739 l 0.91123,-3.66043 c 3.68101,0.31449 2.98828,-1.57308 4.33067,3.93981 z"
       id="path98-8-1" />
    <path
       d="m 45.838539,37.284102 c 0.18857,0.19199 0.59155,-0.36663 1.29854,-1.15629 3.30023,-3.68618 4.11747,-4.22552 6.3946,-4.22017 1.09977,0.003 1.1326,0.58337 0.0771,1.36475 -0.84275,0.62392 -1.5048,1.89519 -1.22623,2.3546 0.28739,0.47396 1.10343,-0.14021 2.30664,-1.73602 1.32589,-1.75855 2.16111,-2.24046 3.85743,-2.2257 1.1604,0.0101 3.51553,0.82417 3.51394,1.21461 -3.7e-4,0.0899 -0.764,0.50921 -1.69698,0.93184 -1.64288,0.74422 -2.81215,1.80574 -2.81521,2.55581 -0.004,0.9021 2.17058,-0.15909 3.5784,-1.74652 1.23845,-1.39643 3.14475,-1.70893 5.03112,-0.82473 1.17854,0.55241 2.11117,1.47776 1.87493,1.86029 -0.0851,0.1378 -0.7111,0.38961 -1.3911,0.55958 -1.79892,0.44966 -2.74679,1.00741 -2.74928,1.61776 -0.003,0.7264 0.48149,0.66566 2.28943,-0.28704 1.27475,-0.67174 1.74026,-0.78673 2.60921,-0.64459 1.00646,0.16466 4.87405,2.46904 4.87954,2.90734 0.002,0.11318 -0.85439,0.76069 -1.9018,1.43889 -2.46233,1.59438 -3.85439,1.78448 -5.56855,0.7605 -1.39323,-0.83229 -2.40354,-0.93913 -2.27402,-0.24049 0.10073,0.54333 1.44357,1.28796 3.0521,1.69245 0.61832,0.15547 1.12269,0.44168 1.1219,0.63662 -0.002,0.53343 -1.83043,1.68274 -3.22204,2.02553 -1.0734,0.26441 -1.38233,0.2346 -2.41835,-0.23331 -0.65325,-0.29503 -1.4667,-0.92273 -1.80767,-1.39489 -0.57502,-0.79628 -2.21828,-1.88039 -2.85418,-1.88298 -0.39949,-0.002 -0.34055,0.85926 0.10298,1.50437 0.21009,0.30558 1.14784,0.92891 2.0839,1.38519 0.93605,0.45628 1.76811,0.93878 1.84902,1.07221 0.21736,0.35844 -1.59435,1.13939 -3.02703,1.30483 -1.62555,0.1877 -2.94945,-0.56084 -4.20622,-2.37828 -1.01116,-1.46223 -1.75801,-2.03322 -2.14823,-1.64236 -0.36477,0.36541 0.11253,1.41279 1.06046,2.32707 0.44944,0.43349 0.81671,0.90035 0.81615,1.03748 -5.7e-4,0.13929 -0.69659,0.19566 -1.57707,0.12773 -1.90402,-0.14691 -2.75639,-0.71077 -4.79944,-3.17497 -1.33122,-1.60562 -2.33294,-2.31176 -2.33566,-1.64646 l -3.67024,-0.87086 c 0.27394,-3.68426 -1.60589,-2.97078 3.89188,-4.37379 z"
       id="path98-8-6" />
    <path
       d="m 34.215211,42.649942 c -0.185643,-0.19482 -0.59701,0.35766 -1.315837,1.13656 -3.355488,3.63595 -4.180773,4.1629 -6.457561,4.12318 -1.099604,-0.0192 -1.123666,-0.60039 -0.05653,-1.36576 0.852066,-0.61112 1.533229,-1.87226 1.261624,-2.33582 -0.280209,-0.47824 -1.10542,0.12354 -2.332573,1.70101 -1.352286,1.73834 -2.194678,2.20759 -3.890584,2.16722 -1.160118,-0.0276 -3.502698,-0.87712 -3.495211,-1.2675 0.0018,-0.0899 0.771602,-0.49762 1.710851,-0.90612 1.653925,-0.71933 2.839083,-1.76309 2.853465,-2.51303 0.01729,-0.90194 -2.172734,0.12631 -3.604356,1.69232 -1.259386,1.37758 -3.170178,1.66127 -5.042995,0.74871 -1.170065,-0.57014 -2.088624,-1.50946 -1.846634,-1.88838 0.08714,-0.1365 0.716895,-0.37884 1.399381,-0.53853 1.805503,-0.42246 2.761684,-0.96584 2.773386,-1.57608 0.01392,-0.72627 -0.471394,-0.67285 -2.293499,0.25245 -1.284746,0.65243 -1.751942,0.76039 -2.618645,0.60514 -1.003866,-0.17982 -4.8362338,-2.54231 -4.8351088,-2.98064 1.7e-4,-0.1132 0.865774,-0.74771 1.923297,-1.41003 2.4861178,-1.55703 3.8808868,-1.72611 5.5793928,-0.67637 1.380515,0.85322 2.389097,0.9753 2.270137,0.27478 -0.09252,-0.54479 -1.423972,-1.3096 -3.026216,-1.73832 -0.615894,-0.16478 -1.115893,-0.45858 -1.112155,-0.65348 0.01028,-0.53333 1.855608,-1.65492 3.252234,-1.97667 1.077267,-0.24818 1.385715,-0.21371 2.414552,0.26978 0.648724,0.30485 1.452612,0.94476 1.786412,1.42202 0.562937,0.80486 2.189655,1.91364 2.825438,1.92583 0.399419,0.008 0.353487,-0.85402 -0.08025,-1.50575 -0.205459,-0.30871 -1.133698,-0.94613 -2.062764,-1.41648 -0.929058,-0.47036 -1.75374,-0.96536 -1.83263,-1.09999 -0.211921,-0.36168 1.611365,-1.1152 3.046383,-1.259 1.628201,-0.16315 2.940644,0.60529 4.16985,2.44148 0.988977,1.47733 1.727126,2.05953 2.123192,1.6746 0.37025,-0.35986 -0.09119,-1.41433 -1.025218,-2.3428 -0.442842,-0.44023 -0.803022,-0.91258 -0.800392,-1.04969 0.0027,-0.13926 0.699458,-0.18512 1.57881,-0.10391 1.901589,0.17562 2.74535,0.75229 4.750981,3.24704 1.306831,1.62553 2.297785,2.34671 2.310541,1.68152 l 3.65668,0.92616 c -0.32951,3.67969 1.56087,2.99468 -3.957446,4.31455 z"
       id="path98-8-1-5" />
    <path
       d="m 35.063049,37.371802 c -0.31124,-0.45622 -0.56633,-0.68824 -1.562862,-1.92131 -1.822332,-2.25489 -4.611103,-4.01544 -8.948398,-5.71991 -4.367789,-1.71645 -5.694663,-1.99671 -6.792327,-1.43466 -0.861827,0.44129 -1.080692,0.81286 -1.592404,2.70345 -0.36013,1.33055 -1.326141,2.09513 -3.306792,2.61728 -1.681819,0.44336 -2.401707,0.45864 -3.7783588,0.0802 -1.250178,-0.34368 -3.985713,-2.83413 -5.352293,-4.87275 -0.503604,-0.75126 -1.358808,-1.71214 -1.900454,-2.13529 -2.377694,-1.85751 -2.31709,-1.57771 -0.512243,-2.36495 0.881784,-0.38462 2.625311,-1.28036 3.874505,-1.99054 2.811076,-1.59813 4.115868,-2.05945 6.4262158,-2.27207 3.275771,-0.30146 4.983124,1.09872 5.455713,4.47415 0.24069,1.71912 0.940607,2.17302 2.964703,1.92261 0.938219,-0.11607 1.542545,-0.32944 1.63916,-0.57874 0.22484,-0.58018 -1.456478,-2.71792 -5.503294,-6.99728 -1.800494,-1.90396 -2.068119,-2.09066 -2.996784,-2.09066 -0.749297,0 -1.258996,0.20801 -1.921934,0.78436 -1.153909,1.0032 -2.0489898,1.33294 -3.6095088,1.32972 -2.631049,-0.005 -5.44067,-2.08728 -6.286004,-4.65776 -0.507663,-1.54369 -0.604676,-4.3013398 -0.315407,-8.9656998 l 0.213311,-3.43958 2.033716,-0.0166 c 1.118544,-0.009 3.29627,-0.11233 4.839392,-0.22939 3.4826278,-0.2642 5.4780218,0.0686 7.2811608,1.21429 1.571739,0.99867 2.433071,2.23615 2.871088,4.12489 0.40348,1.73982 -0.0045,3.6997898 -0.953987,4.5830198 -0.91608,0.85217 -1.260496,2.23835 -0.783217,3.15224 0.364418,0.69779 4.34173,4.25666 7.33561,6.56385 1.354174,1.04358 1.501833,1.09871 1.813227,0.67704 0.488747,-0.66184 0.439405,-3.39571 -0.0704,-3.90051 -0.22517,-0.22296 -0.856447,-0.47441 -1.402838,-0.55878 -2.92386,-0.45149 -4.045955,-1.26691 -4.613054,-3.35227 -0.434412,-1.59744 0.268886,-4.3540198 1.887322,-7.3973598 1.023192,-1.92404 2.395188,-4.57647 3.10391,-6.00067996 0.02241,-0.045 0.805156,0.67392996 1.739431,1.59769996 0.934276,0.92378 2.622536,2.41414 3.751693,3.31191 3.411097,2.71212 4.197324,4.6746598 3.189269,7.9608698 -0.673158,2.19447 -1.671477,3.2187 -3.137269,3.2187 -1.062095,0 -2.112684,0.86626 -2.393316,1.97342 -0.390114,1.53907 2.321449,8.39829 4.757497,12.03463 1.294228,1.93192 3.751141,3.89542 4.228591,4.42158 0.28136,0.31006 1.58688,1.92758 2.96331,3.8972 l -1.50592,1.62751 z M 14.48459,26.514742 c -0.05699,-0.1819 -0.578046,-0.56558 -1.157898,-0.85262 -1.457811,-0.72166 -5.9728098,-0.75812 -7.2755808,-0.0588 -1.319795,0.70851 -0.81232,0.95707 1.072019,0.52508 1.807523,-0.41438 3.7831248,-0.29297 5.1492848,0.31645 1.049141,0.46801 2.349789,0.50907 2.212175,0.0698 z m 12.083411,-11.84845 c 0,-0.15011 -0.253104,-1.01331 -0.562452,-1.91823 -0.448941,-1.31325 -0.534094,-2.04577 -0.421939,-3.6296698 0.07728,-1.09141 0.228377,-2.26821 0.335765,-2.61511 0.145505,-0.47004 0.10311,-0.60032 -0.166403,-0.51137 -0.45803,0.15118 -1.043525,2.35334 -1.050267,3.95026 -0.0075,1.7675798 0.465108,3.9591498 0.973714,4.5156398 0.487496,0.53339 0.891582,0.62788 0.891582,0.20848 z m -13.974448,-1.75519 c 0.212967,-0.54954 -0.97684,-2.84494 -2.220198,-4.2832598 -1.4936598,-1.72787 -6.3227038,-4.08879 -5.9207038,-2.89463 0.05906,0.17544 0.640236,0.59098 1.291502,0.92341 1.867418,0.95321 4.2653718,3.20433 4.8630158,4.5652298 0.85269,1.94167 1.63179,2.60423 1.986384,1.68925 z"
       id="path98" />
    <path
       d="m 43.273159,35.265482 c 0.45091,-0.31888 0.6786,-0.57784 1.89471,-1.59501 2.22386,-1.86007 3.93717,-4.67811 5.56832,-9.04351 1.64261,-4.39609 1.90047,-5.7275 1.32,-6.81553 -0.45574,-0.85427 -0.83095,-1.06685 -2.72989,-1.54663 -1.33643,-0.33766 -2.11718,-1.29065 -2.67263,-3.26222 -0.47164,-1.67411 -0.49904,-2.39364 -0.14386,-3.7764698 0.32257,-1.25579 2.76657,-4.0329 4.78188,-5.43364 0.74267,-0.51619 1.689,-1.38747 2.10296,-1.93616 1.81718,-2.40865996 1.53845,-2.34334996 2.35598,-0.55202 0.39943,0.87517 1.32442,2.60336 2.05555,3.84041 1.64527,2.78375 2.12851,4.08058 2.38002,6.3870198 0.35662,3.27023 -1.01459,5.00093 -4.38158,5.53033 -1.71482,0.26962 -2.15686,0.97709 -1.87238,2.99668 0.13186,0.93613 0.35538,1.53677 0.60627,1.62917 0.58389,0.21503 2.693,-1.50207 6.90356,-5.62041 1.87335,-1.83232 2.05552,-2.10306 2.03987,-3.03159 -0.0126,-0.74919 -0.2292,-1.25531 -0.81663,-1.90845 -1.0225,-1.1368398 -1.36728,-2.0262298 -1.39035,-3.5865898 -0.0393,-2.63076 1.9953,-5.47506 4.55118,-6.36359 1.53491,-0.53359996 4.29053,-0.67706996 8.95911,-0.46642996 l 3.44268,0.15532 0.0509,2.03314996 c 0.0279,1.11823 0.16786,3.29391 0.3109,4.83484 0.32285,3.4776798 0.0237,5.4783998 -1.09143,7.3005898 -0.97204,1.58834 -2.19483,2.4704 -4.07592,2.94018 -1.73278,0.43274 -3.69935,0.0578 -4.59845,-0.87663 -0.86748,-0.90159 -2.25927,-1.2226 -3.16499,-0.72999 -0.69155,0.37613 -4.1829,4.41284 -6.43931,7.44517 -1.02062,1.37157 -1.07325,1.52013 -0.64639,1.82438 0.66998,0.47752 3.40263,0.38212 3.89877,-0.13612 0.21913,-0.22889 0.45991,-0.86431 0.53506,-1.41205 0.40216,-2.93105 1.19856,-4.06673 3.27407,-4.66888 1.58989,-0.46127 4.35793,0.19548 7.42811,1.76241 1.941,0.99062 4.61617,2.31773 6.05212,3.00235 0.0454,0.0216 -0.66026,0.8164 -1.56816,1.76611 -0.90791,0.94971 -2.36961,2.66284 -3.24822,3.80696 -2.65426,3.45632 -4.60328,4.2755 -7.90601,3.32296 -2.2055,-0.63609 -3.2464,-1.617 -3.2711,-3.08259 -0.0179,-1.06194 -0.90174,-2.09779 -2.01347,-2.35972 -1.54542,-0.36413 -8.35798,2.46263 -11.95275,4.9596 -1.90984,1.3266 -3.83167,3.81625 -4.34971,4.30249 -0.30528,0.28655 -1.90057,1.61913 -3.84671,3.02856 l -1.65266,-1.47828 z m 10.50878,-20.75847 c 0.18091,-0.0601 0.55576,-0.5875 0.83299,-1.1721 0.69699,-1.46977 0.65737,-5.9847398 -0.0638,-7.2755398 -0.73065,-1.30767 -0.97062,-0.79608 -0.50694,1.08071 0.44477,1.80029 0.35667,3.7776498 -0.22964,5.1538898 -0.45027,1.05688 -0.46941,2.35803 -0.0325,2.21304 z m 12.05037,11.88205 c 0.15009,-0.002 1.0089,-0.27014 1.90848,-0.5947 1.3055,-0.471 2.03648,-0.56849 3.62205,-0.48304 1.09255,0.0589 2.27173,0.19013 2.62039,0.29166 0.47243,0.13756 0.60198,0.093 0.5085,-0.175 -0.15888,-0.45542 -2.37059,-1.00372 -3.9674,-0.98355 -1.76745,0.0223 -3.95075,0.53175 -4.49859,1.04966 -0.5251,0.49641 -0.61277,0.90203 -0.19343,0.89497 z m 1.51947,-14.00204 c 0.55305,0.20368 2.82808,-1.02464 4.24525,-2.29206 1.70245,-1.5225598 3.98167,-6.3906998 2.79445,-5.9686398 -0.17442,0.062 -0.58011,0.65011 -0.90152,1.30688 -0.9216,1.88322 -3.132,4.31876 -4.48264,4.9392498 -1.92702,0.88529 -2.57636,1.67544 -1.65554,2.01457 z"
       id="path98-4" />
    <path
       d="m 45.677009,41.521422 c 0.31055,0.45669 0.56528,0.6891 1.55994,1.92369 1.81891,2.25765 4.605,4.02243 8.9397,5.73349 4.36518,1.72308 5.69163,2.00535 6.79014,1.44497 0.8625,-0.43998 1.08193,-0.81122 1.59651,-2.70103 0.36215,-1.33 1.32932,-2.09311 3.31076,-2.61225 1.68249,-0.44081 2.4024,-0.45499 3.77848,-0.0745 1.24965,0.34558 3.9814,2.84018 5.34489,4.88087 0.50246,0.75202 1.3562,1.7142 1.89721,2.13817 2.37487,1.86112 2.31469,1.58123 0.50865,2.36573 -0.88237,0.38328 -2.62726,1.27637 -3.87753,1.98465 -2.8135,1.59386 -4.11899,2.0532 -6.42965,2.26231 -3.27623,0.29649 -4.98145,-1.10628 -5.44892,-4.48243 -0.23808,-1.71948 -0.9373,-2.17444 -2.96178,-1.92711 -0.93839,0.11465 -1.54304,0.3271 -1.64003,0.57625 -0.22572,0.57984 1.45234,2.72013 5.49266,7.00563 1.7976,1.90669 2.06494,2.0938 2.9936,2.09521 0.7493,10e-4 1.25931,-0.2061 1.92313,-0.78144 1.15543,-1.00145 2.05101,-1.32983 3.61152,-1.32424 2.63104,0.009 5.43749,2.09554 6.27892,4.6673 0.50532,1.54446 0.59815,4.30226 0.3018,8.96617 l -0.21854,3.43925 -2.03374,0.0135 c -1.11855,0.007 -3.29644,0.10733 -4.83973,0.22204 -3.48303,0.25892 -5.47792,-0.0769 -7.27931,-1.22534 -1.57022,-1.00106 -2.42967,-2.23984 -2.86482,-4.12925 -0.40084,-1.74043 0.0101,-3.69978 0.96094,-4.58156 0.91738,-0.85078 1.2639,-2.23644 0.78801,-3.15105 -0.36336,-0.69834 -4.33526,-4.26325 -7.32564,-6.57498 -1.35258,-1.04564 -1.50016,-1.10099 -1.81219,-0.6798 -0.48976,0.6611 -0.44456,3.39504 0.0645,3.90062 0.22483,0.2233 0.85572,0.47571 1.40198,0.56091 2.92318,0.45593 4.04403,1.27305 4.60796,3.35927 0.43199,1.5981 -0.2755,4.35361 -1.89855,7.39448 -1.02611,1.92249 -2.40214,4.57283 -3.11302,5.99596 -0.0225,0.045 -0.80413,-0.67515 -1.737,-1.60034 -0.93287,-0.92519 -2.61887,-2.41812 -3.74666,-3.3176 -3.40698,-2.7173 -4.19022,-4.68103 -3.17718,-7.9657 0.67649,-2.19345 1.67637,-3.21616 3.14216,-3.21394 1.06209,0.002 2.11399,-0.86305 2.39631,-1.96978 0.39245,-1.53847 -2.3087,-8.4018 -4.73922,-12.04184 -1.29129,-1.93388 -3.74522,-3.90112 -4.22187,-4.428 -0.28089,-0.31049 -1.58395,-1.92999 -2.95739,-3.90169 l 1.50839,-1.62522 z m 20.56195,10.8883 c 0.0567,0.18199 0.57718,0.56646 1.1566,0.85438 1.45671,0.72387 5.97165,0.76719 7.27548,0.0699 1.32087,-0.7065 0.81377,-0.95583 -1.07122,-0.52671 -1.80815,0.41164 -3.78356,0.28723 -5.1488,-0.32427 -1.04843,-0.4696 -2.34901,-0.51263 -2.21206,-0.0732 z m -12.10139,11.83009 c -2.3e-4,0.15011 0.25156,1.01369 0.55953,1.91908 0.44695,1.31393 0.53099,2.04658 0.41643,3.63031 -0.0789,1.09129 -0.23182,2.26786 -0.33973,2.6146 -0.14622,0.46981 -0.10403,0.60016 0.16562,0.51162 0.45826,-0.15049 1.0471,-2.35176 1.05627,-3.94866 0.0102,-1.76757 -0.4591,-3.95986 -0.96686,-4.51712 -0.48668,-0.53413 -0.89063,-0.62923 -0.89126,-0.20983 z m 13.97176,1.77641 c -0.2138,0.54921 0.97252,2.84642 2.21369,4.28663 1.49104,1.73013 6.31649,4.09838 5.9163,2.90361 -0.0588,-0.17553 -0.63933,-0.59195 -1.29009,-0.92537 -1.86597,-0.95604 -4.26051,-3.2108 -4.85608,-4.57261 -0.84974,-1.94296 -1.62783,-2.6067 -1.98382,-1.69226 z"
       id="path98-45" />
    <path
       d="m 37.463709,43.615272 c -0.4514,0.31819 -0.67948,0.57681 -1.89713,1.59213 -2.226682,1.85669 -3.944272,4.67212 -5.582045,9.03504 -1.649284,4.39359 -1.909167,5.72461 -1.330355,6.81353 0.454451,0.85496 0.829334,1.0681 2.727546,1.55077 1.335915,0.33968 2.115215,1.29386 2.667671,3.26627 0.469092,1.67483 0.495403,2.3944 0.138117,3.77669 -0.324471,1.2553 -2.772689,4.02869 -4.790118,5.42637 -0.743451,0.51506 -1.691106,1.3849 -2.105902,1.93297 -1.820838,2.40589 -1.542,2.341 -2.356819,0.54844 -0.398094,-0.87579 -1.320459,-2.60537 -2.049708,-3.84353 -1.641039,-2.78625 -2.12231,-4.08381 -2.370325,-6.39063 -0.351648,-3.27077 1.022191,-4.99939 4.389979,-5.52367 1.715227,-0.26702 2.158344,-0.97381 1.876931,-2.99383 -0.130441,-0.93633 -0.353051,-1.53731 -0.603803,-1.63009 -0.583558,-0.21592 -2.695271,1.49797 -6.912084,5.60992 -1.876131,1.82947 -2.058707,2.09993 -2.044469,3.02849 0.01149,0.7492 0.227288,1.25566 0.813733,1.90968 1.020774,1.13839 1.364198,2.02831 1.384903,3.5887 0.03533,2.63081 -2.003621,5.47203 -4.560838,6.35667 -1.535726,0.53127 -4.291564,0.67056 -8.9598098,0.45283 l -3.442446,-0.16055 -0.04778,-2.03322 c -0.02615,-1.11828 -0.162853,-3.29416 -0.303558,-4.83531 -0.317563,-3.47817 -0.01539,-5.47843 1.102516,-7.29892 0.974456,-1.58687 2.198585,-2.46707 4.080387,-2.93399 1.733431,-0.43011 3.6994248,-0.0522 4.5971078,0.88361 0.866115,0.9029 2.257413,1.22603 3.163878,0.73479 0.69212,-0.37507 4.189594,-4.40648 6.450613,-7.43538 1.022695,-1.37001 1.075555,-1.5185 0.64916,-1.82339 -0.669256,-0.47855 -3.402047,-0.3873 -3.898972,0.13019 -0.219481,0.22856 -0.461224,0.86362 -0.537207,1.41124 -0.406609,2.93044 -1.20473,4.0649 -3.281151,4.66391 -1.590592,0.45885 -4.35763,-0.2021 -7.4254258,-1.77369 -1.9395,-0.99357 -4.612654,-2.32474 -6.047562,-3.01155 -0.04534,-0.0217 0.661506,-0.81539 1.570845,-1.76372 0.909347,-0.94833 2.373648,-2.65924 3.254001,-3.80203 2.659504,-3.45227 4.6097598,-4.2685 7.9110378,-3.31094 2.204533,0.63943 3.243948,1.62193 3.26642,3.08755 0.01629,1.06197 0.898549,2.09915 2.009881,2.36278 1.544871,0.36647 8.361713,-2.44994 11.960276,-4.94145 1.911852,-1.32369 3.837455,-3.81042 4.356225,-4.29588 0.30572,-0.28608 1.90303,-1.61624 3.85131,-3.02271 l 1.65041,1.48079 z m -10.540293,20.74249 c -0.181004,0.0598 -0.55665,0.58665 -0.834767,1.17084 -0.699225,1.4687 -0.666458,5.98373 0.05275,7.27562 0.728661,1.30878 0.969412,0.79756 0.508582,-1.07994 -0.442043,-1.80096 -0.350937,-3.77819 0.237467,-5.15353 0.45187,-1.0562 0.472984,-2.35732 0.03587,-2.21299 z M 14.891103,52.457422 c -0.150092,0.002 -1.009311,0.26861 -1.909381,0.5918 -1.306213,0.46902 -2.037341,0.5654 -3.6227748,0.47754 -1.092466,-0.0605 -2.271444,-0.19358 -2.61995,-0.29563 -0.472215,-0.13829 -0.601831,-0.0939 -0.508759,0.17422 0.158184,0.45566 2.369062,1.00732 3.9658978,0.98958 1.767488,-0.0196 3.951554,-0.52575 4.500181,-1.04283 0.525853,-0.49562 0.614137,-0.90111 0.194786,-0.89468 z m -1.540734,13.99972 c -0.552741,-0.20452 -2.82963,1.02034 -4.2487178,2.28561 -1.704767,1.51997 -3.991374,6.38464 -2.803517,5.96439 0.174514,-0.0618 0.581095,-0.64923 0.903501,-1.30551 0.924467,-1.88182 3.1385578,-4.314 4.4901358,-4.93244 1.928368,-0.88236 2.578907,-1.67153 1.658598,-2.01205 z"
       id="path98-4-1" />
  </g>
</svg>
